<mxfile host="Electron" modified="2024-01-19T10:18:50.730Z" agent="Mozilla/5.0 (Macintosh; Intel Mac OS X 10_15_7) AppleWebKit/537.36 (KHTML, like Gecko) draw.io/22.1.18 Chrome/120.0.6099.199 Electron/28.1.2 Safari/537.36" etag="TlVP2g0xkzR991BcUWJD" version="22.1.18" type="device">
  <diagram name="第 1 页" id="ufg7FDZAvXpvqAaUlEPp">
    <mxGraphModel dx="1578" dy="1005" grid="1" gridSize="10" guides="1" tooltips="1" connect="1" arrows="1" fold="1" page="1" pageScale="1" pageWidth="1600" pageHeight="1200" math="0" shadow="0">
      <root>
        <mxCell id="0" />
        <mxCell id="1" parent="0" />
        <mxCell id="6ZMetDqiG7twovBFO8Wo-1" value="0" style="rounded=0;whiteSpace=wrap;html=1;fontSize=24;fillColor=#dae8fc;strokeColor=#6c8ebf;" vertex="1" parent="1">
          <mxGeometry x="320" y="160" width="120" height="40" as="geometry" />
        </mxCell>
        <mxCell id="6ZMetDqiG7twovBFO8Wo-2" value="1" style="rounded=0;whiteSpace=wrap;html=1;fontSize=24;fillColor=#d5e8d4;strokeColor=#82b366;" vertex="1" parent="1">
          <mxGeometry x="440" y="160" width="120" height="40" as="geometry" />
        </mxCell>
        <mxCell id="6ZMetDqiG7twovBFO8Wo-3" value="11" style="rounded=0;whiteSpace=wrap;html=1;fontSize=24;fillColor=#d5e8d4;strokeColor=#82b366;" vertex="1" parent="1">
          <mxGeometry x="560" y="160" width="120" height="40" as="geometry" />
        </mxCell>
        <mxCell id="6ZMetDqiG7twovBFO8Wo-4" value="3" style="rounded=0;whiteSpace=wrap;html=1;fontSize=24;fillColor=#fff2cc;strokeColor=#d6b656;" vertex="1" parent="1">
          <mxGeometry x="680" y="160" width="120" height="40" as="geometry" />
        </mxCell>
        <mxCell id="6ZMetDqiG7twovBFO8Wo-5" value="21" style="rounded=0;whiteSpace=wrap;html=1;fontSize=24;fillColor=#d5e8d4;strokeColor=#82b366;" vertex="1" parent="1">
          <mxGeometry x="800" y="160" width="120" height="40" as="geometry" />
        </mxCell>
        <mxCell id="6ZMetDqiG7twovBFO8Wo-11" value="初始状态" style="text;html=1;strokeColor=none;fillColor=none;align=center;verticalAlign=middle;whiteSpace=wrap;rounded=0;fontSize=24;" vertex="1" parent="1">
          <mxGeometry x="180" y="160" width="100" height="40" as="geometry" />
        </mxCell>
        <mxCell id="6ZMetDqiG7twovBFO8Wo-37" value="13" style="rounded=0;whiteSpace=wrap;html=1;fontSize=24;fillColor=#fff2cc;strokeColor=#d6b656;" vertex="1" parent="1">
          <mxGeometry x="920" y="160" width="120" height="40" as="geometry" />
        </mxCell>
        <mxCell id="6ZMetDqiG7twovBFO8Wo-38" value="" style="rounded=0;whiteSpace=wrap;html=1;fontSize=24;" vertex="1" parent="1">
          <mxGeometry x="1040" y="160" width="120" height="40" as="geometry" />
        </mxCell>
        <mxCell id="6ZMetDqiG7twovBFO8Wo-39" value="27" style="rounded=0;whiteSpace=wrap;html=1;fontSize=24;fillColor=#e1d5e7;strokeColor=#9673a6;" vertex="1" parent="1">
          <mxGeometry x="1160" y="160" width="120" height="40" as="geometry" />
        </mxCell>
        <mxCell id="6ZMetDqiG7twovBFO8Wo-40" value="" style="rounded=0;whiteSpace=wrap;html=1;fontSize=24;" vertex="1" parent="1">
          <mxGeometry x="1280" y="160" width="120" height="40" as="geometry" />
        </mxCell>
        <mxCell id="6ZMetDqiG7twovBFO8Wo-41" value="" style="rounded=0;whiteSpace=wrap;html=1;fontSize=24;" vertex="1" parent="1">
          <mxGeometry x="1400" y="160" width="120" height="40" as="geometry" />
        </mxCell>
        <mxCell id="6ZMetDqiG7twovBFO8Wo-42" value="" style="verticalLabelPosition=bottom;verticalAlign=top;html=1;shape=mxgraph.basic.x;fillColor=#f8cecc;strokeColor=#b85450;" vertex="1" parent="1">
          <mxGeometry x="475" y="155" width="50" height="50" as="geometry" />
        </mxCell>
        <mxCell id="6ZMetDqiG7twovBFO8Wo-43" value="0" style="rounded=0;whiteSpace=wrap;html=1;fontSize=24;fillColor=#dae8fc;strokeColor=#6c8ebf;" vertex="1" parent="1">
          <mxGeometry x="320" y="245" width="120" height="40" as="geometry" />
        </mxCell>
        <mxCell id="6ZMetDqiG7twovBFO8Wo-44" value="" style="rounded=0;whiteSpace=wrap;html=1;fontSize=24;" vertex="1" parent="1">
          <mxGeometry x="440" y="245" width="120" height="40" as="geometry" />
        </mxCell>
        <mxCell id="6ZMetDqiG7twovBFO8Wo-45" value="11" style="rounded=0;whiteSpace=wrap;html=1;fontSize=24;fillColor=#d5e8d4;strokeColor=#82b366;" vertex="1" parent="1">
          <mxGeometry x="560" y="245" width="120" height="40" as="geometry" />
        </mxCell>
        <mxCell id="6ZMetDqiG7twovBFO8Wo-46" value="3" style="rounded=0;whiteSpace=wrap;html=1;fontSize=24;fillColor=#fff2cc;strokeColor=#d6b656;" vertex="1" parent="1">
          <mxGeometry x="680" y="245" width="120" height="40" as="geometry" />
        </mxCell>
        <mxCell id="6ZMetDqiG7twovBFO8Wo-47" value="21" style="rounded=0;whiteSpace=wrap;html=1;fontSize=24;fillColor=#d5e8d4;strokeColor=#82b366;" vertex="1" parent="1">
          <mxGeometry x="800" y="245" width="120" height="40" as="geometry" />
        </mxCell>
        <mxCell id="6ZMetDqiG7twovBFO8Wo-49" value="13" style="rounded=0;whiteSpace=wrap;html=1;fontSize=24;fillColor=#fff2cc;strokeColor=#d6b656;" vertex="1" parent="1">
          <mxGeometry x="920" y="245" width="120" height="40" as="geometry" />
        </mxCell>
        <mxCell id="6ZMetDqiG7twovBFO8Wo-50" value="" style="rounded=0;whiteSpace=wrap;html=1;fontSize=24;" vertex="1" parent="1">
          <mxGeometry x="1040" y="245" width="120" height="40" as="geometry" />
        </mxCell>
        <mxCell id="6ZMetDqiG7twovBFO8Wo-51" value="27" style="rounded=0;whiteSpace=wrap;html=1;fontSize=24;fillColor=#e1d5e7;strokeColor=#9673a6;" vertex="1" parent="1">
          <mxGeometry x="1160" y="245" width="120" height="40" as="geometry" />
        </mxCell>
        <mxCell id="6ZMetDqiG7twovBFO8Wo-52" value="" style="rounded=0;whiteSpace=wrap;html=1;fontSize=24;" vertex="1" parent="1">
          <mxGeometry x="1280" y="245" width="120" height="40" as="geometry" />
        </mxCell>
        <mxCell id="6ZMetDqiG7twovBFO8Wo-53" value="" style="rounded=0;whiteSpace=wrap;html=1;fontSize=24;" vertex="1" parent="1">
          <mxGeometry x="1400" y="245" width="120" height="40" as="geometry" />
        </mxCell>
        <mxCell id="6ZMetDqiG7twovBFO8Wo-55" value="" style="curved=1;endArrow=classic;html=1;rounded=0;strokeWidth=3;fillColor=#d5e8d4;strokeColor=#82b366;" edge="1" parent="1" source="6ZMetDqiG7twovBFO8Wo-45" target="6ZMetDqiG7twovBFO8Wo-44">
          <mxGeometry width="50" height="50" relative="1" as="geometry">
            <mxPoint x="570" y="320" as="sourcePoint" />
            <mxPoint x="520" y="370" as="targetPoint" />
            <Array as="points">
              <mxPoint x="680" y="340" />
              <mxPoint x="460" y="340" />
            </Array>
          </mxGeometry>
        </mxCell>
        <mxCell id="6ZMetDqiG7twovBFO8Wo-68" value="" style="curved=1;endArrow=classic;html=1;rounded=0;strokeWidth=3;fillColor=#f8cecc;strokeColor=#b85450;" edge="1" parent="1" source="6ZMetDqiG7twovBFO8Wo-45" target="6ZMetDqiG7twovBFO8Wo-44">
          <mxGeometry width="50" height="50" relative="1" as="geometry">
            <mxPoint x="614" y="320" as="sourcePoint" />
            <mxPoint x="520" y="320" as="targetPoint" />
            <Array as="points">
              <mxPoint x="560" y="340" />
            </Array>
          </mxGeometry>
        </mxCell>
        <mxCell id="6ZMetDqiG7twovBFO8Wo-69" value="检查11" style="text;html=1;strokeColor=none;fillColor=none;align=center;verticalAlign=middle;whiteSpace=wrap;rounded=0;fontSize=24;" vertex="1" parent="1">
          <mxGeometry x="180" y="240" width="100" height="40" as="geometry" />
        </mxCell>
        <mxCell id="6ZMetDqiG7twovBFO8Wo-70" value="0" style="rounded=0;whiteSpace=wrap;html=1;fontSize=24;fillColor=#dae8fc;strokeColor=#6c8ebf;" vertex="1" parent="1">
          <mxGeometry x="320" y="375" width="120" height="40" as="geometry" />
        </mxCell>
        <mxCell id="6ZMetDqiG7twovBFO8Wo-71" value="11" style="rounded=0;whiteSpace=wrap;html=1;fontSize=24;fillColor=#d5e8d4;strokeColor=#82b366;" vertex="1" parent="1">
          <mxGeometry x="440" y="375" width="120" height="40" as="geometry" />
        </mxCell>
        <mxCell id="6ZMetDqiG7twovBFO8Wo-72" value="" style="rounded=0;whiteSpace=wrap;html=1;fontSize=24;" vertex="1" parent="1">
          <mxGeometry x="560" y="375" width="120" height="40" as="geometry" />
        </mxCell>
        <mxCell id="6ZMetDqiG7twovBFO8Wo-73" value="3" style="rounded=0;whiteSpace=wrap;html=1;fontSize=24;fillColor=#fff2cc;strokeColor=#d6b656;" vertex="1" parent="1">
          <mxGeometry x="680" y="375" width="120" height="40" as="geometry" />
        </mxCell>
        <mxCell id="6ZMetDqiG7twovBFO8Wo-74" value="21" style="rounded=0;whiteSpace=wrap;html=1;fontSize=24;fillColor=#d5e8d4;strokeColor=#82b366;" vertex="1" parent="1">
          <mxGeometry x="800" y="375" width="120" height="40" as="geometry" />
        </mxCell>
        <mxCell id="6ZMetDqiG7twovBFO8Wo-75" value="13" style="rounded=0;whiteSpace=wrap;html=1;fontSize=24;fillColor=#fff2cc;strokeColor=#d6b656;" vertex="1" parent="1">
          <mxGeometry x="920" y="375" width="120" height="40" as="geometry" />
        </mxCell>
        <mxCell id="6ZMetDqiG7twovBFO8Wo-76" value="" style="rounded=0;whiteSpace=wrap;html=1;fontSize=24;" vertex="1" parent="1">
          <mxGeometry x="1040" y="375" width="120" height="40" as="geometry" />
        </mxCell>
        <mxCell id="6ZMetDqiG7twovBFO8Wo-77" value="27" style="rounded=0;whiteSpace=wrap;html=1;fontSize=24;fillColor=#e1d5e7;strokeColor=#9673a6;" vertex="1" parent="1">
          <mxGeometry x="1160" y="375" width="120" height="40" as="geometry" />
        </mxCell>
        <mxCell id="6ZMetDqiG7twovBFO8Wo-78" value="" style="rounded=0;whiteSpace=wrap;html=1;fontSize=24;" vertex="1" parent="1">
          <mxGeometry x="1280" y="375" width="120" height="40" as="geometry" />
        </mxCell>
        <mxCell id="6ZMetDqiG7twovBFO8Wo-79" value="" style="rounded=0;whiteSpace=wrap;html=1;fontSize=24;" vertex="1" parent="1">
          <mxGeometry x="1400" y="375" width="120" height="40" as="geometry" />
        </mxCell>
        <mxCell id="6ZMetDqiG7twovBFO8Wo-81" value="" style="curved=1;endArrow=classic;html=1;rounded=0;strokeWidth=3;fillColor=#f8cecc;strokeColor=#b85450;" edge="1" parent="1" source="6ZMetDqiG7twovBFO8Wo-73" target="6ZMetDqiG7twovBFO8Wo-72">
          <mxGeometry width="50" height="50" relative="1" as="geometry">
            <mxPoint x="614" y="450" as="sourcePoint" />
            <mxPoint x="520" y="450" as="targetPoint" />
            <Array as="points">
              <mxPoint x="800" y="480" />
              <mxPoint x="570" y="480" />
            </Array>
          </mxGeometry>
        </mxCell>
        <mxCell id="6ZMetDqiG7twovBFO8Wo-82" value="检查3" style="text;html=1;strokeColor=none;fillColor=none;align=center;verticalAlign=middle;whiteSpace=wrap;rounded=0;fontSize=24;" vertex="1" parent="1">
          <mxGeometry x="180" y="370" width="100" height="40" as="geometry" />
        </mxCell>
        <mxCell id="6ZMetDqiG7twovBFO8Wo-83" value="" style="curved=1;endArrow=classic;html=1;rounded=0;strokeWidth=3;fillColor=#fff2cc;strokeColor=#d6b656;" edge="1" parent="1" source="6ZMetDqiG7twovBFO8Wo-73" target="6ZMetDqiG7twovBFO8Wo-73">
          <mxGeometry width="50" height="50" relative="1" as="geometry">
            <mxPoint x="754" y="430" as="sourcePoint" />
            <mxPoint x="660" y="430" as="targetPoint" />
            <Array as="points">
              <mxPoint x="760" y="460" />
              <mxPoint x="700" y="460" />
            </Array>
          </mxGeometry>
        </mxCell>
        <mxCell id="6ZMetDqiG7twovBFO8Wo-84" value="0" style="rounded=0;whiteSpace=wrap;html=1;fontSize=24;fillColor=#dae8fc;strokeColor=#6c8ebf;" vertex="1" parent="1">
          <mxGeometry x="320" y="495" width="120" height="40" as="geometry" />
        </mxCell>
        <mxCell id="6ZMetDqiG7twovBFO8Wo-85" value="11" style="rounded=0;whiteSpace=wrap;html=1;fontSize=24;fillColor=#d5e8d4;strokeColor=#82b366;" vertex="1" parent="1">
          <mxGeometry x="440" y="495" width="120" height="40" as="geometry" />
        </mxCell>
        <mxCell id="6ZMetDqiG7twovBFO8Wo-86" value="" style="rounded=0;whiteSpace=wrap;html=1;fontSize=24;" vertex="1" parent="1">
          <mxGeometry x="560" y="495" width="120" height="40" as="geometry" />
        </mxCell>
        <mxCell id="6ZMetDqiG7twovBFO8Wo-87" value="3" style="rounded=0;whiteSpace=wrap;html=1;fontSize=24;fillColor=#fff2cc;strokeColor=#d6b656;" vertex="1" parent="1">
          <mxGeometry x="680" y="495" width="120" height="40" as="geometry" />
        </mxCell>
        <mxCell id="6ZMetDqiG7twovBFO8Wo-88" value="21" style="rounded=0;whiteSpace=wrap;html=1;fontSize=24;fillColor=#d5e8d4;strokeColor=#82b366;" vertex="1" parent="1">
          <mxGeometry x="800" y="495" width="120" height="40" as="geometry" />
        </mxCell>
        <mxCell id="6ZMetDqiG7twovBFO8Wo-89" value="13" style="rounded=0;whiteSpace=wrap;html=1;fontSize=24;fillColor=#fff2cc;strokeColor=#d6b656;" vertex="1" parent="1">
          <mxGeometry x="920" y="495" width="120" height="40" as="geometry" />
        </mxCell>
        <mxCell id="6ZMetDqiG7twovBFO8Wo-90" value="" style="rounded=0;whiteSpace=wrap;html=1;fontSize=24;" vertex="1" parent="1">
          <mxGeometry x="1040" y="495" width="120" height="40" as="geometry" />
        </mxCell>
        <mxCell id="6ZMetDqiG7twovBFO8Wo-91" value="27" style="rounded=0;whiteSpace=wrap;html=1;fontSize=24;fillColor=#e1d5e7;strokeColor=#9673a6;" vertex="1" parent="1">
          <mxGeometry x="1160" y="495" width="120" height="40" as="geometry" />
        </mxCell>
        <mxCell id="6ZMetDqiG7twovBFO8Wo-92" value="" style="rounded=0;whiteSpace=wrap;html=1;fontSize=24;" vertex="1" parent="1">
          <mxGeometry x="1280" y="495" width="120" height="40" as="geometry" />
        </mxCell>
        <mxCell id="6ZMetDqiG7twovBFO8Wo-93" value="" style="rounded=0;whiteSpace=wrap;html=1;fontSize=24;" vertex="1" parent="1">
          <mxGeometry x="1400" y="495" width="120" height="40" as="geometry" />
        </mxCell>
        <mxCell id="6ZMetDqiG7twovBFO8Wo-94" value="" style="curved=1;endArrow=classic;html=1;rounded=0;strokeWidth=3;fillColor=#f8cecc;strokeColor=#b85450;" edge="1" parent="1" source="6ZMetDqiG7twovBFO8Wo-88" target="6ZMetDqiG7twovBFO8Wo-86">
          <mxGeometry width="50" height="50" relative="1" as="geometry">
            <mxPoint x="614" y="570" as="sourcePoint" />
            <mxPoint x="520" y="570" as="targetPoint" />
            <Array as="points">
              <mxPoint x="750" y="600" />
            </Array>
          </mxGeometry>
        </mxCell>
        <mxCell id="6ZMetDqiG7twovBFO8Wo-95" value="检查21" style="text;html=1;strokeColor=none;fillColor=none;align=center;verticalAlign=middle;whiteSpace=wrap;rounded=0;fontSize=24;" vertex="1" parent="1">
          <mxGeometry x="180" y="490" width="100" height="40" as="geometry" />
        </mxCell>
        <mxCell id="6ZMetDqiG7twovBFO8Wo-96" value="" style="curved=1;endArrow=classic;html=1;rounded=0;strokeWidth=3;fillColor=#d5e8d4;strokeColor=#82b366;" edge="1" parent="1" source="6ZMetDqiG7twovBFO8Wo-88" target="6ZMetDqiG7twovBFO8Wo-85">
          <mxGeometry width="50" height="50" relative="1" as="geometry">
            <mxPoint x="754" y="550" as="sourcePoint" />
            <mxPoint x="660" y="550" as="targetPoint" />
            <Array as="points">
              <mxPoint x="920" y="590" />
              <mxPoint x="470" y="590" />
            </Array>
          </mxGeometry>
        </mxCell>
        <mxCell id="6ZMetDqiG7twovBFO8Wo-97" value="0" style="rounded=0;whiteSpace=wrap;html=1;fontSize=24;fillColor=#dae8fc;strokeColor=#6c8ebf;" vertex="1" parent="1">
          <mxGeometry x="320" y="625" width="120" height="40" as="geometry" />
        </mxCell>
        <mxCell id="6ZMetDqiG7twovBFO8Wo-98" value="11" style="rounded=0;whiteSpace=wrap;html=1;fontSize=24;fillColor=#d5e8d4;strokeColor=#82b366;" vertex="1" parent="1">
          <mxGeometry x="440" y="625" width="120" height="40" as="geometry" />
        </mxCell>
        <mxCell id="6ZMetDqiG7twovBFO8Wo-99" value="21" style="rounded=0;whiteSpace=wrap;html=1;fontSize=24;fillColor=#d5e8d4;strokeColor=#82b366;" vertex="1" parent="1">
          <mxGeometry x="560" y="625" width="120" height="40" as="geometry" />
        </mxCell>
        <mxCell id="6ZMetDqiG7twovBFO8Wo-100" value="3" style="rounded=0;whiteSpace=wrap;html=1;fontSize=24;fillColor=#fff2cc;strokeColor=#d6b656;" vertex="1" parent="1">
          <mxGeometry x="680" y="625" width="120" height="40" as="geometry" />
        </mxCell>
        <mxCell id="6ZMetDqiG7twovBFO8Wo-101" value="" style="rounded=0;whiteSpace=wrap;html=1;fontSize=24;" vertex="1" parent="1">
          <mxGeometry x="800" y="625" width="120" height="40" as="geometry" />
        </mxCell>
        <mxCell id="6ZMetDqiG7twovBFO8Wo-102" value="13" style="rounded=0;whiteSpace=wrap;html=1;fontSize=24;fillColor=#fff2cc;strokeColor=#d6b656;" vertex="1" parent="1">
          <mxGeometry x="920" y="625" width="120" height="40" as="geometry" />
        </mxCell>
        <mxCell id="6ZMetDqiG7twovBFO8Wo-103" value="" style="rounded=0;whiteSpace=wrap;html=1;fontSize=24;" vertex="1" parent="1">
          <mxGeometry x="1040" y="625" width="120" height="40" as="geometry" />
        </mxCell>
        <mxCell id="6ZMetDqiG7twovBFO8Wo-104" value="27" style="rounded=0;whiteSpace=wrap;html=1;fontSize=24;fillColor=#e1d5e7;strokeColor=#9673a6;" vertex="1" parent="1">
          <mxGeometry x="1160" y="625" width="120" height="40" as="geometry" />
        </mxCell>
        <mxCell id="6ZMetDqiG7twovBFO8Wo-105" value="" style="rounded=0;whiteSpace=wrap;html=1;fontSize=24;" vertex="1" parent="1">
          <mxGeometry x="1280" y="625" width="120" height="40" as="geometry" />
        </mxCell>
        <mxCell id="6ZMetDqiG7twovBFO8Wo-106" value="" style="rounded=0;whiteSpace=wrap;html=1;fontSize=24;" vertex="1" parent="1">
          <mxGeometry x="1400" y="625" width="120" height="40" as="geometry" />
        </mxCell>
        <mxCell id="6ZMetDqiG7twovBFO8Wo-107" value="" style="curved=1;endArrow=classic;html=1;rounded=0;strokeWidth=3;fillColor=#f8cecc;strokeColor=#b85450;" edge="1" parent="1" source="6ZMetDqiG7twovBFO8Wo-102" target="6ZMetDqiG7twovBFO8Wo-101">
          <mxGeometry width="50" height="50" relative="1" as="geometry">
            <mxPoint x="614" y="700" as="sourcePoint" />
            <mxPoint x="520" y="700" as="targetPoint" />
            <Array as="points">
              <mxPoint x="920" y="740" />
            </Array>
          </mxGeometry>
        </mxCell>
        <mxCell id="6ZMetDqiG7twovBFO8Wo-108" value="检查13" style="text;html=1;strokeColor=none;fillColor=none;align=center;verticalAlign=middle;whiteSpace=wrap;rounded=0;fontSize=24;" vertex="1" parent="1">
          <mxGeometry x="180" y="620" width="100" height="40" as="geometry" />
        </mxCell>
        <mxCell id="6ZMetDqiG7twovBFO8Wo-109" value="" style="curved=1;endArrow=classic;html=1;rounded=0;strokeWidth=3;fillColor=#fff2cc;strokeColor=#d6b656;" edge="1" parent="1" source="6ZMetDqiG7twovBFO8Wo-102" target="6ZMetDqiG7twovBFO8Wo-100">
          <mxGeometry width="50" height="50" relative="1" as="geometry">
            <mxPoint x="754" y="680" as="sourcePoint" />
            <mxPoint x="940" y="800" as="targetPoint" />
            <Array as="points">
              <mxPoint x="1010" y="730" />
              <mxPoint x="750" y="730" />
            </Array>
          </mxGeometry>
        </mxCell>
        <mxCell id="6ZMetDqiG7twovBFO8Wo-110" value="0" style="rounded=0;whiteSpace=wrap;html=1;fontSize=24;fillColor=#dae8fc;strokeColor=#6c8ebf;" vertex="1" parent="1">
          <mxGeometry x="320" y="745" width="120" height="40" as="geometry" />
        </mxCell>
        <mxCell id="6ZMetDqiG7twovBFO8Wo-111" value="11" style="rounded=0;whiteSpace=wrap;html=1;fontSize=24;fillColor=#d5e8d4;strokeColor=#82b366;" vertex="1" parent="1">
          <mxGeometry x="440" y="745" width="120" height="40" as="geometry" />
        </mxCell>
        <mxCell id="6ZMetDqiG7twovBFO8Wo-112" value="21" style="rounded=0;whiteSpace=wrap;html=1;fontSize=24;fillColor=#d5e8d4;strokeColor=#82b366;" vertex="1" parent="1">
          <mxGeometry x="560" y="745" width="120" height="40" as="geometry" />
        </mxCell>
        <mxCell id="6ZMetDqiG7twovBFO8Wo-113" value="3" style="rounded=0;whiteSpace=wrap;html=1;fontSize=24;fillColor=#fff2cc;strokeColor=#d6b656;" vertex="1" parent="1">
          <mxGeometry x="680" y="745" width="120" height="40" as="geometry" />
        </mxCell>
        <mxCell id="6ZMetDqiG7twovBFO8Wo-114" value="13" style="rounded=0;whiteSpace=wrap;html=1;fontSize=24;fillColor=#fff2cc;strokeColor=#d6b656;" vertex="1" parent="1">
          <mxGeometry x="800" y="745" width="120" height="40" as="geometry" />
        </mxCell>
        <mxCell id="6ZMetDqiG7twovBFO8Wo-115" value="" style="rounded=0;whiteSpace=wrap;html=1;fontSize=24;" vertex="1" parent="1">
          <mxGeometry x="920" y="745" width="120" height="40" as="geometry" />
        </mxCell>
        <mxCell id="6ZMetDqiG7twovBFO8Wo-116" value="" style="rounded=0;whiteSpace=wrap;html=1;fontSize=24;" vertex="1" parent="1">
          <mxGeometry x="1040" y="745" width="120" height="40" as="geometry" />
        </mxCell>
        <mxCell id="6ZMetDqiG7twovBFO8Wo-117" value="27" style="rounded=0;whiteSpace=wrap;html=1;fontSize=24;fillColor=#e1d5e7;strokeColor=#9673a6;" vertex="1" parent="1">
          <mxGeometry x="1160" y="745" width="120" height="40" as="geometry" />
        </mxCell>
        <mxCell id="6ZMetDqiG7twovBFO8Wo-118" value="" style="rounded=0;whiteSpace=wrap;html=1;fontSize=24;" vertex="1" parent="1">
          <mxGeometry x="1280" y="745" width="120" height="40" as="geometry" />
        </mxCell>
        <mxCell id="6ZMetDqiG7twovBFO8Wo-119" value="" style="rounded=0;whiteSpace=wrap;html=1;fontSize=24;" vertex="1" parent="1">
          <mxGeometry x="1400" y="745" width="120" height="40" as="geometry" />
        </mxCell>
      </root>
    </mxGraphModel>
  </diagram>
</mxfile>
